<svg height="16" viewBox="0 0 16 16" width="16" xmlns="http://www.w3.org/2000/svg"><path d="m3.5 13h9c.2761424 0 .5.2238576.5.5 0 .2454599-.1768752.4496084-.4101244.4919443l-.0898756.0080557h-9c-.27614237 0-.5-.2238576-.5-.5 0-.2454599.17687516-.4496084.41012437-.4919443l.08987563-.0080557h9zm4.41012437-11.99194433.08987563-.00805567c.24545989 0 .44960837.17687516.49194433.41012437l.00805567.08987563v8.792l2.6819805-2.6810873c.1735664-.17356635.4429908-.1928515.6378589-.05785545l.0692479.05785545c.1735663.17356636.1928515.44299076.0578554.6378589l-.0578554.06924788-3.53553391 3.53553392c-.17356635.1735663-.44299075.1928515-.63785889.0578554l-.06924789-.0578554-3.53553391-3.53553392c-.19526214-.19526214-.19526214-.51184463 0-.70710678.17356636-.17356635.44299076-.1928515.6378589-.05785545l.06924788.05785545 2.68198052 2.6810873v-8.792c0-.24545989.17687516-.44960837.41012437-.49194433l.08987563-.00805567z" fill="#212121"/></svg>